<svg xmlns="http://www.w3.org/2000/svg" version="1.1" xmlns:xlink="http://www.w3.org/1999/xlink" xmlns:svgjs="http://svgjs.com/svgjs" width="1440" height="560" preserveAspectRatio="none" viewBox="0 0 1440 560"><g mask="url(&quot;#SvgjsMask1009&quot;)" fill="none"><rect width="1440" height="560" x="0" y="0" fill="rgba(5, 29, 54, 1)"></rect><path d="M451 307L450 721" stroke-width="8" stroke="url(#SvgjsLinearGradient1010)" stroke-linecap="round" class="Up"></path><path d="M1327 425L1326 76" stroke-width="8" stroke="url(#SvgjsLinearGradient1010)" stroke-linecap="round" class="Up"></path><path d="M446 462L445 615" stroke-width="8" stroke="url(#SvgjsLinearGradient1010)" stroke-linecap="round" class="Up"></path><path d="M1418 104L1417 -184" stroke-width="6" stroke="url(#SvgjsLinearGradient1011)" stroke-linecap="round" class="Down"></path><path d="M1297 493L1296 162" stroke-width="10" stroke="url(#SvgjsLinearGradient1010)" stroke-linecap="round" class="Up"></path><path d="M9 329L8 715" stroke-width="8" stroke="url(#SvgjsLinearGradient1010)" stroke-linecap="round" class="Up"></path><path d="M891 303L890 4" stroke-width="10" stroke="url(#SvgjsLinearGradient1011)" stroke-linecap="round" class="Down"></path><path d="M418 76L417 -306" stroke-width="10" stroke="url(#SvgjsLinearGradient1010)" stroke-linecap="round" class="Up"></path><path d="M238 377L237 777" stroke-width="6" stroke="url(#SvgjsLinearGradient1010)" stroke-linecap="round" class="Up"></path><path d="M651 323L650 700" stroke-width="8" stroke="url(#SvgjsLinearGradient1011)" stroke-linecap="round" class="Down"></path><path d="M2 300L1 546" stroke-width="10" stroke="url(#SvgjsLinearGradient1010)" stroke-linecap="round" class="Up"></path><path d="M1089 60L1088 264" stroke-width="6" stroke="url(#SvgjsLinearGradient1011)" stroke-linecap="round" class="Down"></path><path d="M107 194L106 606" stroke-width="6" stroke="url(#SvgjsLinearGradient1010)" stroke-linecap="round" class="Up"></path><path d="M1141 113L1140 -142" stroke-width="10" stroke="url(#SvgjsLinearGradient1010)" stroke-linecap="round" class="Up"></path><path d="M350 473L349 113" stroke-width="6" stroke="url(#SvgjsLinearGradient1011)" stroke-linecap="round" class="Down"></path><path d="M952 104L951 247" stroke-width="10" stroke="url(#SvgjsLinearGradient1011)" stroke-linecap="round" class="Down"></path><path d="M1393 296L1392 454" stroke-width="6" stroke="url(#SvgjsLinearGradient1010)" stroke-linecap="round" class="Up"></path><path d="M357 36L356 -246" stroke-width="6" stroke="url(#SvgjsLinearGradient1011)" stroke-linecap="round" class="Down"></path><path d="M852 546L851 148" stroke-width="6" stroke="url(#SvgjsLinearGradient1011)" stroke-linecap="round" class="Down"></path><path d="M102 189L101 353" stroke-width="8" stroke="url(#SvgjsLinearGradient1011)" stroke-linecap="round" class="Down"></path><path d="M1167 241L1166 581" stroke-width="10" stroke="url(#SvgjsLinearGradient1011)" stroke-linecap="round" class="Down"></path><path d="M1046 538L1045 713" stroke-width="6" stroke="url(#SvgjsLinearGradient1011)" stroke-linecap="round" class="Down"></path><path d="M826 479L825 151" stroke-width="10" stroke="url(#SvgjsLinearGradient1010)" stroke-linecap="round" class="Up"></path><path d="M1285 126L1284 435" stroke-width="6" stroke="url(#SvgjsLinearGradient1010)" stroke-linecap="round" class="Up"></path><path d="M273 166L272 485" stroke-width="10" stroke="url(#SvgjsLinearGradient1011)" stroke-linecap="round" class="Down"></path><path d="M912 555L911 699" stroke-width="6" stroke="url(#SvgjsLinearGradient1011)" stroke-linecap="round" class="Down"></path><path d="M1187 439L1186 827" stroke-width="8" stroke="url(#SvgjsLinearGradient1010)" stroke-linecap="round" class="Up"></path><path d="M128 189L127 543" stroke-width="8" stroke="url(#SvgjsLinearGradient1010)" stroke-linecap="round" class="Up"></path><path d="M1127 187L1126 -174" stroke-width="6" stroke="url(#SvgjsLinearGradient1010)" stroke-linecap="round" class="Up"></path><path d="M1023 121L1022 370" stroke-width="10" stroke="url(#SvgjsLinearGradient1010)" stroke-linecap="round" class="Up"></path><path d="M1274 508L1273 772" stroke-width="8" stroke="url(#SvgjsLinearGradient1011)" stroke-linecap="round" class="Down"></path><path d="M675 141L674 428" stroke-width="6" stroke="url(#SvgjsLinearGradient1010)" stroke-linecap="round" class="Up"></path><path d="M507 362L506 25" stroke-width="6" stroke="url(#SvgjsLinearGradient1011)" stroke-linecap="round" class="Down"></path><path d="M921 555L920 370" stroke-width="8" stroke="url(#SvgjsLinearGradient1011)" stroke-linecap="round" class="Down"></path><path d="M1187 83L1186 -333" stroke-width="8" stroke="url(#SvgjsLinearGradient1011)" stroke-linecap="round" class="Down"></path><path d="M461 192L460 -58" stroke-width="10" stroke="url(#SvgjsLinearGradient1011)" stroke-linecap="round" class="Down"></path></g><defs><mask id="SvgjsMask1009"><rect width="1440" height="560" fill="#ffffff"></rect></mask><linearGradient x1="0%" y1="100%" x2="0%" y2="0%" id="SvgjsLinearGradient1010"><stop stop-color="rgba(179, 201, 223, 0)" offset="0"></stop><stop stop-color="rgba(179, 201, 223, 1)" offset="1"></stop></linearGradient><linearGradient x1="0%" y1="0%" x2="0%" y2="100%" id="SvgjsLinearGradient1011"><stop stop-color="rgba(179, 201, 223, 0)" offset="0"></stop><stop stop-color="rgba(179, 201, 223, 1)" offset="1"></stop></linearGradient></defs></svg>